<svg width="45" height="56" viewBox="0 0 45 56" fill="none" xmlns="http://www.w3.org/2000/svg">
<path fill-rule="evenodd" clip-rule="evenodd" d="M16.6084 0.628461C16.4155 0.827172 16.2625 1.06323 16.1581 1.32312C16.0537 1.58301 16 1.86162 16 2.14299C16 2.42437 16.0537 2.70298 16.1581 2.96287C16.2625 3.22275 16.4155 3.45881 16.6084 3.65752L39.9971 27.813L16.6084 51.9685C16.2195 52.3702 16.0011 52.915 16.0011 53.483C16.0011 54.0511 16.2195 54.5959 16.6084 54.9976C16.9973 55.3992 17.5247 55.6249 18.0746 55.6249C18.6245 55.6249 19.1519 55.3992 19.5408 54.9976L44.3916 29.3275C44.5845 29.1288 44.7375 28.8928 44.8419 28.6329C44.9463 28.373 45 28.0944 45 27.813C45 27.5316 44.9463 27.253 44.8419 26.9931C44.7375 26.7332 44.5845 26.4972 44.3916 26.2985L19.5408 0.628461C19.3484 0.429248 19.1199 0.271194 18.8683 0.163352C18.6167 0.0555108 18.347 0 18.0746 0C17.8022 0 17.5325 0.0555108 17.2809 0.163352C17.0293 0.271194 16.8008 0.429248 16.6084 0.628461Z" fill="#02CF8C"/>
<path fill-rule="evenodd" clip-rule="evenodd" d="M0.608402 1.5988C0.415546 1.78814 0.262537 2.01306 0.158138 2.26068C0.0537376 2.50831 -1.90735e-06 2.77377 -1.90735e-06 3.04187C-1.90735e-06 3.30996 0.0537376 3.57543 0.158138 3.82305C0.262537 4.07067 0.415546 4.29559 0.608402 4.48493L23.9971 27.5005L0.608402 50.5161C0.415857 50.7057 0.263124 50.9306 0.15892 51.1782C0.0547161 51.4258 0.00108528 51.6912 0.00108528 51.9592C0.00108528 52.2272 0.0547161 52.4926 0.15892 52.7402C0.263124 52.9878 0.415857 53.2128 0.608402 53.4023C0.800945 53.5918 1.02953 53.7421 1.2811 53.8447C1.53267 53.9472 1.8023 54 2.0746 54C2.3469 54 2.61653 53.9472 2.8681 53.8447C3.11967 53.7421 3.34825 53.5918 3.5408 53.4023L28.3916 28.9436C28.5845 28.7543 28.7375 28.5293 28.8419 28.2817C28.9463 28.0341 29 27.7686 29 27.5005C29 27.2324 28.9463 26.967 28.8419 26.7194C28.7375 26.4717 28.5845 26.2468 28.3916 26.0575L3.5408 1.5988C3.34843 1.40899 3.1199 1.2584 2.86831 1.15564C2.61671 1.05289 2.34699 1 2.0746 1C1.8022 1 1.53249 1.05289 1.28089 1.15564C1.0293 1.2584 0.80077 1.40899 0.608402 1.5988Z" fill="#02CF8C"/>
</svg>
