<svg width="46" height="33" viewBox="0 0 46 33" fill="none" xmlns="http://www.w3.org/2000/svg">
<path d="M35.9016 12C33.9134 12 31.9699 12.6158 30.3168 13.7696C28.6636 14.9233 27.3752 16.5632 26.6143 18.4818C25.8535 20.4004 25.6544 22.5116 26.0423 24.5484C26.4302 26.5852 27.3876 28.4562 28.7934 29.9246C30.1993 31.3931 31.9905 32.3931 33.9405 32.7982C35.8904 33.2034 37.9117 32.9955 39.7485 32.2007C41.5853 31.406 43.1553 30.0602 44.2599 28.3335C45.3645 26.6068 45.954 24.5767 45.954 22.5L46 21C46 18.2422 45.48 15.5115 44.4696 12.9636C43.4592 10.4158 41.9783 8.10079 40.1114 6.15076C38.2445 4.20073 36.0282 2.65388 33.5889 1.59853C31.1497 0.543182 28.5353 0 25.8951 0V6C27.7818 5.9947 29.6508 6.38013 31.394 7.13399C33.1372 7.88786 34.72 8.9952 36.0509 10.392C36.5682 10.9313 37.0454 11.511 37.4784 12.126C36.9568 12.0404 36.4296 11.9973 35.9016 11.997V12ZM10.0525 12C8.06426 12 6.12073 12.6158 4.46761 13.7696C2.81449 14.9233 1.52605 16.5632 0.765201 18.4818C0.00435564 20.4004 -0.194716 22.5116 0.193159 24.5484C0.581035 26.5852 1.53844 28.4562 2.9443 29.9246C4.35016 31.3931 6.14133 32.3931 8.09132 32.7982C10.0413 33.2034 12.0625 32.9955 13.8994 32.2007C15.7362 31.406 17.3062 30.0602 18.4108 28.3335C19.5153 26.6068 20.1049 24.5767 20.1049 22.5L20.1508 21C20.1508 15.4305 18.0327 10.089 14.2623 6.15076C10.4919 2.21249 5.37811 0 0.0459585 0V6C1.93265 5.9947 3.80164 6.38013 5.54484 7.13399C7.28804 7.88786 8.87087 8.9952 10.2018 10.392C10.7191 10.9313 11.1963 11.511 11.6292 12.126C11.1076 12.0404 10.5805 11.9973 10.0525 11.997V12Z" fill="white"/>
</svg>
