<svg width="50" height="50" viewBox="0 0 50 50" fill="none" xmlns="http://www.w3.org/2000/svg">
<circle cx="25" cy="25" r="25" fill="#263238" fill-opacity="0.36"/>
<path d="M18 35V24.5918L14.8367 21.6387L12 20V33.1632C12 34.1795 12.807 35 13.8 35H18Z" fill="#4285F4"/>
<path d="M33 35H37.2C38.196 35 39 34.1765 39 33.1632V20L35.787 21.877L33 24.5917V35Z" fill="#34A853"/>
<path d="M18 25V20.7567V17L25.475 22.3182L33 16.8867V20.5539V25L25.475 30L18 25Z" fill="#EA4335"/>
<path d="M33 16.8793V25L39 20.315V17.8163C39 15.4988 36.459 14.1777 34.6801 15.5675L33 16.8793Z" fill="#FBBC04"/>
<path d="M12 20.315L14.7595 22.4698L18 25V16.8793L16.3199 15.5675C14.5379 14.1776 12 15.4988 12 17.8162V20.3149V20.315Z" fill="#C5221F"/>
</svg>
