<svg width="50" height="50" viewBox="0 0 50 50" fill="none" xmlns="http://www.w3.org/2000/svg">
<circle cx="25" cy="25" r="25" fill="#263238" fill-opacity="0.36"/>
<path fill-rule="evenodd" clip-rule="evenodd" d="M38.3578 18.0834C38.5514 17.4594 38.3578 17 37.4303 17H34.3678C33.5885 17 33.2292 17.3966 33.0344 17.8343C33.0344 17.8343 31.4769 21.4869 29.2708 23.8594C28.5568 24.5474 28.2325 24.7657 27.8428 24.7657C27.648 24.7657 27.3552 24.5474 27.3552 23.9223V18.0834C27.3552 17.3337 27.1405 17 26.4918 17H21.6759C21.1895 17 20.8966 17.3474 20.8966 17.6777C20.8966 18.3874 22.0003 18.552 22.1134 20.5497V24.8903C22.1134 25.8423 21.9349 26.0149 21.5453 26.0149C20.507 26.0149 17.9812 22.3451 16.4821 18.1463C16.1916 17.3291 15.8976 17 15.1147 17H12.05C11.175 17 11 17.3966 11 17.8343C11 18.6137 12.0383 22.4857 15.8357 27.6069C18.3673 31.104 21.9314 33 25.1782 33C27.1253 33 27.3657 32.5794 27.3657 31.8537V29.2103C27.3657 28.368 27.55 28.2 28.1671 28.2C28.6221 28.2 29.4003 28.4194 31.2179 30.1051C33.2945 32.104 33.6364 33 34.8053 33H37.8678C38.7428 33 39.1814 32.5794 38.9294 31.7474C38.6518 30.92 37.6601 29.7189 36.3453 28.2937C35.6313 27.4823 34.5603 26.608 34.2348 26.1703C33.781 25.6091 33.9105 25.3589 34.2348 24.8594C34.2348 24.8594 37.9681 19.8011 38.3566 18.0834H38.3578Z" fill="white"/>
</svg>
