<svg width="187" height="4" viewBox="0 0 187 4" fill="none" xmlns="http://www.w3.org/2000/svg">
<path d="M6.06064 0.885497C2.59768 1.00763 0.57765 1.22137 0.000488281 1.52672V1.83206C0.000488281 2.4631 2.16483 3.03308 6.49353 3.54198L7.35926 3.66412L9.09079 3.78626C11.688 3.92875 13.9966 4 16.0167 4H16.8824C17.171 3.97964 17.6038 3.96947 18.181 3.96947C19.3353 3.94911 20.3454 3.93893 21.2111 3.93893C22.3655 3.93893 23.3755 3.92875 24.2412 3.9084L50.2135 3.66412C53.3878 3.62341 56.5622 3.59288 59.7366 3.57252C63.1996 3.53181 66.5182 3.49109 69.6926 3.45038C72.867 3.40967 76.0414 3.37913 79.2157 3.35878L88.7389 3.29771C95.3763 3.21628 102.014 3.15522 108.651 3.1145C115.577 3.07379 122.358 3.03308 128.996 2.99237C133.613 2.97201 138.086 2.96183 142.415 2.96183C147.032 2.94148 151.649 2.91094 156.267 2.87023H165.79C168.676 2.87023 171.706 2.89059 174.88 2.9313C175.457 2.95165 176.323 3.00254 177.477 3.08397C178.632 3.12468 179.353 3.14504 179.642 3.14504C181.373 3.14504 182.816 3.06361 183.97 2.90076C185.413 2.71756 186.279 2.57506 186.568 2.47328C186.856 2.33079 187 2.17812 187 2.01527C187 1.93384 186.856 1.82188 186.568 1.67939C186.568 1.51654 186.135 1.32315 185.269 1.09924C183.538 0.610687 179.064 0.315521 171.85 0.21374C164.058 0.111959 156.267 0.0508908 148.475 0.0305349C140.683 0.0101783 132.892 0 125.1 0L105.188 0.0610689H85.2759C79.7929 0.0610689 73.4441 0.0712468 66.2296 0.0916028C59.3037 0.111959 52.0892 0.152672 44.5861 0.21374C37.3716 0.274809 30.3014 0.356234 23.3755 0.458016C16.7381 0.559797 10.9665 0.70229 6.06064 0.885497Z" fill="#02CF8C"/>
</svg>
